<svg width="240" height="240" viewBox="0 0 120 120" fill="none" xmlns="http://www.w3.org/2000/svg">
  <defs>
    <linearGradient id="gg-emerald-glow" x1="10%" y1="10%" x2="90%" y2="90%">
      <stop offset="0%" stopColor="#6EE7B7" />
      <stop offset="35%" stopColor="#10B981" />
      <stop offset="85%" stopColor="#047857" />
      <stop offset="100%" stopColor="#064E3B" />
    </linearGradient>
    <linearGradient id="gg-gold-glow" x1="100%" y1="10%" x2="0%" y2="100%">
      <stop offset="0%" stopColor="#FEF08A" />
      <stop offset="25%" stopColor="#FBBF24" />
      <stop offset="70%" stopColor="#F59E0B" />
      <stop offset="100%" stopColor="#B45309" />
    </linearGradient>
    <linearGradient id="gg-plat-shine" x1="0%" y1="0%" x2="100%" y2="100%">
      <stop offset="0%" stopColor="#FFFFFF" stopOpacity="0.9" />
      <stop offset="100%" stopColor="#FFFFFF" stopOpacity="0.1" />
    </linearGradient>
  </defs>
  <path d="M60 10 C32 10 12 32 12 60 C12 88 32 110 60 110 C82 110 100 95 106 74 C107 70 104 66 100 66 L78 66 C75 66 72 68 71 71 C68 79 64 84 60 84 C47 84 38 73 38 60 C38 47 47 36 60 36 C68 36 75 41 78 47 L95 32 C87 19 74 10 60 10 Z" fill="url(#gg-emerald-glow)" />
  <path d="M60 22 C78 22 93 35 97 52 C98 56 95 60 91 60 L70 60 C68 60 66 58 65 56 C63 48 58 44 52 44 C43 44 36 51 36 60 C36 65 38 70 42 74 L27 88 C18 78 14 69 14 60 C14 39 34 22 60 22 Z" fill="url(#gg-gold-glow)" />
  <path d="M60 10 C75 24 82 42 78 64 C64 68 46 62 38 48 C42 32 50 18 60 10 Z" fill="url(#gg-plat-shine)" />
  <circle cx="68" cy="66" r="6" fill="url(#gg-gold-glow)" />
  <circle cx="68" cy="66" r="2.5" fill="#FFFFFF" />
  <path d="M92 24 A 18 18 0 0 1 106 42" stroke="#F59E0B" stroke-width="4" stroke-linecap="round" />
  <path d="M98 14 A 30 30 0 0 1 114 38" stroke="#34D399" stroke-width="3.5" stroke-linecap="round" />
</svg>
